<svg xmlns="http://www.w3.org/2000/svg" xmlns:xlink="http://www.w3.org/1999/xlink" width="2000" zoomAndPan="magnify" viewBox="0 0 1500 1499.999933" height="2000" preserveAspectRatio="xMidYMid meet" version="1.0"><defs><clipPath id="51330a090b"><path d="M 0.265625 0.199219 L 869.648438 0.199219 L 869.648438 1018 L 0.265625 1018 Z M 0.265625 0.199219 " clip-rule="nonzero"/></clipPath><clipPath id="9fa7a89868"><path d="M 0.265625 767.398438 L 257.273438 767.398438 L 257.273438 1018 L 0.265625 1018 Z M 0.265625 767.398438 " clip-rule="nonzero"/></clipPath><clipPath id="ad982c4aeb"><path d="M 0.265625 0.398438 L 257.273438 0.398438 L 257.273438 251 L 0.265625 251 Z M 0.265625 0.398438 " clip-rule="nonzero"/></clipPath><clipPath id="d70b5cb919"><rect x="0" width="258" y="0" height="251"/></clipPath><clipPath id="0a10dbed2d"><rect x="0" width="872" y="0" height="1019"/></clipPath></defs><rect x="-150" width="1800" fill="#ffffff" y="-149.999993" height="1799.99992" fill-opacity="1"/><rect x="-150" width="1800" fill="#001512" y="-149.999993" height="1799.99992" fill-opacity="1"/><g transform="matrix(1, 0, 0, 1, 315, 241)"><g clip-path="url(#0a10dbed2d)"><g clip-path="url(#51330a090b)"><path fill="#ffffff" d="M 869.730469 1017.707031 L 552.523438 1017.707031 L 0.265625 314.785156 L 0.265625 0.28125 L 249.765625 0.28125 L 249.765625 228.507812 L 339.664062 342.949219 C 497 308.363281 615.089844 167.859375 615.089844 0.28125 L 864.527344 0.28125 C 864.554688 10.109375 864.339844 19.933594 863.882812 29.75 C 863.425781 39.566406 862.722656 49.367188 861.78125 59.148438 C 860.839844 68.929688 859.65625 78.683594 858.234375 88.40625 C 856.808594 98.132812 855.144531 107.816406 853.242188 117.457031 C 851.339844 127.097656 849.199219 136.6875 846.820312 146.222656 C 844.445312 155.757812 841.835938 165.230469 838.988281 174.636719 C 836.144531 184.042969 833.066406 193.375 829.761719 202.628906 C 826.453125 211.886719 822.921875 221.054688 819.160156 230.132812 C 815.402344 239.214844 811.417969 248.195312 807.214844 257.078125 C 803.011719 265.960938 798.589844 274.734375 793.953125 283.398438 C 789.316406 292.066406 784.464844 300.609375 779.40625 309.035156 C 774.34375 317.460938 769.082031 325.753906 763.609375 333.917969 C 758.140625 342.082031 752.472656 350.109375 746.605469 357.992188 C 740.738281 365.875 734.679688 373.609375 728.429688 381.195312 C 722.179688 388.78125 715.746094 396.207031 709.128906 403.472656 C 702.511719 410.742188 695.722656 417.839844 688.753906 424.769531 C 675.460938 438.109375 661.570312 450.789062 647.082031 462.820312 C 632.59375 474.847656 617.574219 486.167969 602.019531 496.78125 C 586.464844 507.398438 570.445312 517.253906 553.960938 526.359375 C 537.480469 535.464844 520.605469 543.773438 503.339844 551.289062 Z M 0.265625 1017.707031 L 249.765625 1017.707031 L 249.765625 768.222656 L 0.265625 768.222656 Z M 0.265625 1017.707031 " fill-opacity="1" fill-rule="nonzero"/></g><g clip-path="url(#9fa7a89868)"><g transform="matrix(1, 0, 0, 1, 0, 767)"><g clip-path="url(#d70b5cb919)"><g clip-path="url(#ad982c4aeb)"><path fill="#ff5757" d="M 0.265625 0.398438 L 257.714844 0.398438 L 257.714844 251 L 0.265625 251 Z M 0.265625 0.398438 " fill-opacity="1" fill-rule="nonzero"/></g></g></g></g></g></g></svg>